<svg width="264" height="264" viewBox="0 0 264 264" fill="none" xmlns="http://www.w3.org/2000/svg">
<path d="M12.375 226.875H251.625V241.312C251.625 244.048 250.539 246.671 248.605 248.605C246.671 250.539 244.048 251.625 241.312 251.625H22.6875C19.9525 251.625 17.3294 250.539 15.3955 248.605C13.4615 246.671 12.375 244.048 12.375 241.312V226.875Z" fill="#79D8EB"/>
<path d="M241.174 235.125H22.8257C21.1764 235.125 19.5511 234.729 18.0863 233.971C16.6215 233.213 15.3598 232.115 14.4072 230.769C13.4546 229.422 12.8388 227.867 12.6115 226.234C12.3843 224.6 12.5521 222.936 13.101 221.38L33 177.375H231L250.899 221.38C251.448 222.936 251.616 224.6 251.388 226.234C251.161 227.867 250.545 229.422 249.593 230.769C248.64 232.115 247.379 233.213 245.914 233.971C244.449 234.729 242.824 235.125 241.174 235.125V235.125Z" fill="#E4F7FB"/>
<path d="M255.461 226.875C255.796 224.565 255.566 222.209 254.79 220.008C254.751 219.897 254.707 219.788 254.659 219.681L236.131 178.707C235.394 177.082 234.204 175.703 232.704 174.735C231.204 173.767 229.458 173.252 227.673 173.25H226.875V181.5H227.673C227.871 181.5 228.065 181.557 228.232 181.665C228.398 181.772 228.53 181.926 228.612 182.106L247.059 222.9C247.361 223.829 247.439 224.816 247.286 225.78C247.133 226.745 246.754 227.659 246.18 228.449C245.606 229.239 244.854 229.882 243.984 230.326C243.113 230.769 242.151 231 241.174 231H22.8257C21.8492 231 20.8865 230.769 20.0164 230.326C19.1463 229.882 18.3935 229.239 17.8196 228.449C17.2456 227.659 16.8667 226.745 16.714 225.78C16.5613 224.816 16.639 223.829 16.9409 222.9L29.2973 195.577L21.78 192.173L9.34261 219.681C9.29414 219.788 9.25031 219.897 9.21113 220.008C8.43544 222.209 8.20491 224.565 8.53927 226.875H8.25V241.312C8.25437 245.14 9.77686 248.81 12.4835 251.517C15.1901 254.223 18.8598 255.746 22.6875 255.75H218.625V247.5H22.6875C21.047 247.498 19.4742 246.846 18.3142 245.686C17.1542 244.526 16.5018 242.953 16.5 241.312V237.787C18.47 238.749 20.6334 239.249 22.8257 239.25H241.174C243.367 239.249 245.53 238.749 247.5 237.787V241.312C247.498 242.953 246.846 244.526 245.686 245.686C244.526 246.846 242.953 247.498 241.312 247.5H226.875V255.75H241.312C245.14 255.746 248.81 254.223 251.517 251.517C254.223 248.81 255.746 245.14 255.75 241.312V226.875H255.461Z" fill="black"/>
<path d="M185.625 41.25V24.75H177.375L152.625 12.375L132 24.75H119.625V41.25L86.625 53.625V140.25H218.625V53.625L185.625 41.25Z" fill="#FAC850"/>
<path d="M111.375 160.875H86.625V218.625H103.125L111.375 160.875Z" fill="#FAC850"/>
<path d="M218.625 160.875H193.875L202.125 218.625H218.625V160.875Z" fill="#FAC850"/>
<path d="M193.875 160.875H111.375L103.125 218.625H202.125L193.875 160.875Z" fill="#FFFDFA"/>
<path d="M90.75 82.5H82.5V127.875H90.75V82.5Z" fill="black"/>
<path d="M107.25 66H99V74.25H107.25V66Z" fill="black"/>
<path d="M107.25 82.5H99V90.75H107.25V82.5Z" fill="black"/>
<path d="M107.25 99H99V107.25H107.25V99Z" fill="black"/>
<path d="M107.25 115.5H99V123.75H107.25V115.5Z" fill="black"/>
<path d="M206.25 66H198V74.25H206.25V66Z" fill="black"/>
<path d="M206.25 82.5H198V90.75H206.25V82.5Z" fill="black"/>
<path d="M206.25 99H198V107.25H206.25V99Z" fill="black"/>
<path d="M206.25 115.5H198V123.75H206.25V115.5Z" fill="black"/>
<path d="M140.25 185.625H132V198H140.25V185.625Z" fill="black"/>
<path d="M173.25 185.625H165V198H173.25V185.625Z" fill="black"/>
<path d="M140.25 99H132V107.25H140.25V99Z" fill="black"/>
<path d="M156.75 99H148.5V107.25H156.75V99Z" fill="black"/>
<path d="M173.25 99H165V107.25H173.25V99Z" fill="black"/>
<path d="M140.25 78.375H132V86.625H140.25V78.375Z" fill="black"/>
<path d="M156.75 78.375H148.5V86.625H156.75V78.375Z" fill="black"/>
<path d="M173.25 78.375H165V86.625H173.25V78.375Z" fill="black"/>
<path d="M140.25 57.75H132V66H140.25V57.75Z" fill="black"/>
<path d="M156.75 57.75H148.5V66H156.75V57.75Z" fill="black"/>
<path d="M173.25 57.75H165V66H173.25V57.75Z" fill="black"/>
<path d="M140.25 37.125H132V45.375H140.25V37.125Z" fill="black"/>
<path d="M156.75 37.125H148.5V45.375H156.75V37.125Z" fill="black"/>
<path d="M173.25 37.125H165V45.375H173.25V37.125Z" fill="black"/>
<path d="M173.25 140.25C173.25 134.78 171.077 129.534 167.209 125.666C163.341 121.798 158.095 119.625 152.625 119.625C147.155 119.625 141.909 121.798 138.041 125.666C134.173 129.534 132 134.78 132 140.25H78.375V160.875H226.875V140.25H173.25Z" fill="#FA5D3F"/>
<path d="M94.875 165C94.875 156.248 91.3982 147.854 85.2095 141.665C79.0208 135.477 70.6271 132 61.875 132C53.1229 132 44.7292 135.477 38.5405 141.665C32.3518 147.854 28.875 156.248 28.875 165C28.875 189.75 61.875 218.625 61.875 218.625C61.875 218.625 94.875 189.75 94.875 165Z" fill="#79D8EB"/>
<path d="M226.875 136.125H222.75V53.625C222.75 52.7854 222.494 51.9657 222.015 51.2756C221.537 50.5855 220.86 50.0578 220.073 49.763L189.75 38.3914V24.75C189.75 23.656 189.315 22.6068 188.542 21.8332C187.768 21.0596 186.719 20.625 185.625 20.625H178.349L154.47 8.68571C153.849 8.37568 153.16 8.22733 152.466 8.25436C151.773 8.2814 151.098 8.48297 150.503 8.84039L130.857 20.625H119.625C118.531 20.625 117.482 21.0596 116.708 21.8332C115.935 22.6068 115.5 23.656 115.5 24.75V38.3914L85.1766 49.763C84.3904 50.0578 83.7129 50.5855 83.2347 51.2756C82.7564 51.9657 82.5001 52.7854 82.5 53.625V74.25H90.75V56.4836L115.5 47.2024V136.125H85.1849C79.7355 131.72 73.1501 128.948 66.1907 128.129C59.2314 127.311 52.1826 128.48 45.8599 131.501C39.5372 134.521 34.1991 139.271 30.4633 145.199C26.7275 151.128 24.7466 157.993 24.75 165C24.75 176.225 30.6054 189.234 42.1539 203.672C47.3299 210.137 53.0165 216.176 59.1587 221.731C59.9106 222.389 60.8758 222.752 61.875 222.752C62.8742 222.752 63.8394 222.389 64.5913 221.731C70.7336 216.176 76.4201 210.137 81.5961 203.672C93.1446 189.234 99 176.225 99 165H106.619L99.5476 214.5H90.75V210.375H82.5V218.625C82.5 219.719 82.9346 220.768 83.7082 221.542C84.4818 222.315 85.531 222.75 86.625 222.75H218.625C219.719 222.75 220.768 222.315 221.542 221.542C222.315 220.768 222.75 219.719 222.75 218.625V165H226.875C227.969 165 229.018 164.565 229.792 163.792C230.565 163.018 231 161.969 231 160.875V140.25C231 139.156 230.565 138.107 229.792 137.333C229.018 136.56 227.969 136.125 226.875 136.125ZM189.75 47.2024L214.5 56.4836V136.125H189.75V47.2024ZM123.75 28.875H132C132.748 28.8748 133.481 28.6716 134.122 28.2872L152.805 17.077L175.53 28.4393C176.103 28.7259 176.735 28.8751 177.375 28.875H181.5V136.125H177.031C176.056 130.358 173.07 125.122 168.602 121.346C164.134 117.571 158.474 115.5 152.625 115.5C146.776 115.5 141.116 117.571 136.648 121.346C132.18 125.122 129.194 130.358 128.219 136.125H123.75V28.875ZM75.2343 198.416C71.0994 203.56 66.637 208.431 61.875 213C57.1434 208.461 52.708 203.623 48.5961 198.516C38.3929 185.763 33 174.173 33 165C33 157.342 36.0422 149.997 41.4573 144.582C46.8724 139.167 54.2169 136.125 61.875 136.125C69.5331 136.125 76.8776 139.167 82.2927 144.582C87.7078 149.997 90.75 157.342 90.75 165C90.75 174.147 85.3875 185.702 75.2343 198.416ZM148.5 214.5H107.881L114.952 165H148.5V214.5ZM156.75 214.5V165H190.298L197.369 214.5H156.75ZM214.5 214.5H205.702L198.631 165H214.5V214.5ZM222.75 156.75H98.076C97.0681 152.332 95.256 148.137 92.73 144.375H132C133.094 144.375 134.143 143.94 134.917 143.167C135.69 142.393 136.125 141.344 136.125 140.25C136.125 135.874 137.863 131.677 140.958 128.583C144.052 125.488 148.249 123.75 152.625 123.75C157.001 123.75 161.198 125.488 164.292 128.583C167.387 131.677 169.125 135.874 169.125 140.25C169.125 141.344 169.56 142.393 170.333 143.167C171.107 143.94 172.156 144.375 173.25 144.375H222.75V156.75Z" fill="black"/>
<path d="M61.875 177.375C68.7095 177.375 74.25 171.835 74.25 165C74.25 158.165 68.7095 152.625 61.875 152.625C55.0405 152.625 49.5 158.165 49.5 165C49.5 171.835 55.0405 177.375 61.875 177.375Z" fill="#E4F7FB"/>
<path d="M61.875 181.5C58.6116 181.5 55.4215 180.532 52.7081 178.719C49.9947 176.906 47.8798 174.329 46.631 171.314C45.3821 168.299 45.0554 164.982 45.6921 161.781C46.3287 158.58 47.9002 155.64 50.2077 153.333C52.5153 151.025 55.4553 149.454 58.656 148.817C61.8567 148.18 65.1743 148.507 68.1893 149.756C71.2043 151.005 73.7812 153.12 75.5943 155.833C77.4073 158.546 78.375 161.737 78.375 165C78.3701 169.375 76.6301 173.569 73.5368 176.662C70.4436 179.755 66.2496 181.495 61.875 181.5ZM61.875 156.75C60.2433 156.75 58.6483 157.234 57.2916 158.14C55.9348 159.047 54.8774 160.335 54.253 161.843C53.6286 163.35 53.4652 165.009 53.7835 166.609C54.1019 168.21 54.8876 169.68 56.0414 170.834C57.1952 171.987 58.6652 172.773 60.2655 173.091C61.8659 173.41 63.5247 173.246 65.0321 172.622C66.5396 171.998 67.8281 170.94 68.7346 169.583C69.6412 168.227 70.125 166.632 70.125 165C70.1224 162.813 69.2524 160.716 67.7058 159.169C66.1592 157.623 64.0623 156.753 61.875 156.75Z" fill="black"/>
<path d="M160.875 136.125H144.375V144.375H160.875V136.125Z" fill="black"/>
</svg>
