<svg width="205" height="202" viewBox="0 0 205 202" fill="none" xmlns="http://www.w3.org/2000/svg">
<g clip-path="url(#clip0)">
<path d="M52.5267 120.586L76.8661 114.482L68.9722 81.0799L60.8591 83.1147L58.8345 83.6068L54.7814 84.639L52.7568 85.1311L44.6436 87.166L47.1144 97.6207L50.0738 110.143L52.5267 120.586Z" fill="url(#paint0_linear)"/>
<path d="M24.8041 103.21L47.1029 97.6172L50.0641 110.147L27.7653 115.74L24.8041 103.21Z" fill="#B4CDE1"/>
<path d="M31.5274 125.212C31.6715 124.971 31.768 124.703 31.8114 124.424C31.8548 124.144 31.8443 123.859 31.7804 123.584L24.8706 94.3461C24.7368 93.7885 24.3935 93.3085 23.9162 93.0116C23.4388 92.7148 22.8666 92.6255 22.3253 92.7633C21.784 92.9011 21.3181 93.2548 21.0299 93.7466C20.7418 94.2383 20.6551 94.8278 20.7889 95.3854L27.7095 124.605C27.7736 124.881 27.8901 125.141 28.0522 125.37C28.2143 125.6 28.419 125.794 28.6543 125.941C28.8896 126.089 29.1509 126.187 29.4231 126.23C29.6954 126.273 29.9732 126.259 30.2405 126.191C30.5071 126.123 30.7579 126.002 30.9788 125.834C31.1996 125.665 31.386 125.454 31.5274 125.212Z" fill="#9DB8D3"/>
<path d="M92.4706 81.8532C92.9974 81.7194 93.4513 81.3763 93.7333 80.8988C94.0153 80.4213 94.1024 79.8483 93.9757 79.3049L93.007 75.2061L89.0283 76.204L90.0145 80.3138C90.1468 80.8505 90.4782 81.3123 90.9374 81.6001C91.3966 81.8879 91.9471 81.9788 92.4706 81.8532V81.8532Z" fill="url(#paint1_linear)"/>
<path d="M85.4605 87.9839C85.7228 87.9169 85.9697 87.7973 86.1871 87.6318C86.4044 87.4663 86.5879 87.2583 86.7271 87.0196C86.8689 86.7826 86.9639 86.519 87.0066 86.2441C87.0494 85.9692 87.039 85.6883 86.9762 85.4175L85.032 77.1909L81.0532 78.1888L82.9799 86.4044C83.0411 86.6765 83.1539 86.9334 83.312 87.1603C83.4701 87.3872 83.6702 87.5796 83.9008 87.7265C84.1314 87.8733 84.3879 87.9717 84.6556 88.0158C84.9233 88.06 85.1969 88.0492 85.4605 87.9839Z" fill="url(#paint2_linear)"/>
<path d="M102.391 83.7375C102.654 83.6706 102.901 83.5509 103.118 83.3854C103.335 83.22 103.519 83.0119 103.658 82.7732C103.8 82.5362 103.895 82.2727 103.937 81.9977C103.98 81.7228 103.97 81.4419 103.907 81.1711L102.039 73.1409C101.464 73.1613 100.892 73.2427 100.333 73.3841L98.0191 73.9644L99.9458 82.18C100.074 82.7177 100.403 83.182 100.86 83.4732C101.317 83.7644 101.867 83.8593 102.391 83.7375Z" fill="url(#paint3_linear)"/>
<path d="M76.5168 85.8699C77.0435 85.7361 77.4975 85.393 77.7795 84.9155C78.0615 84.438 78.1486 83.865 78.0218 83.3216L77.0463 79.1938L75.0428 79.6962L73.0569 80.2097L74.0255 84.3085C74.0886 84.5801 74.2032 84.8362 74.3628 85.0619C74.5224 85.2877 74.7238 85.4786 74.9554 85.6238C75.187 85.769 75.4442 85.8654 75.7122 85.9077C75.9802 85.9499 76.2536 85.9371 76.5168 85.8699V85.8699Z" fill="url(#paint4_linear)"/>
<path d="M62.3388 89.3757C62.6066 89.3097 62.8592 89.1897 63.0818 89.0227C63.3044 88.8556 63.4928 88.6448 63.6359 88.4024C63.7791 88.16 63.8743 87.8909 63.9159 87.6104C63.9576 87.3299 63.9449 87.0437 63.8787 86.7683L62.8945 82.6041L60.8591 83.1146L58.8345 83.6068L59.8256 87.8005C59.9576 88.3518 60.2959 88.8269 60.7668 89.122C61.2377 89.4172 61.8028 89.5083 62.3388 89.3757V89.3757ZM55.2097 95.5747C55.4786 95.5102 55.7323 95.3913 55.9563 95.2251C56.1802 95.0588 56.3699 94.8484 56.5144 94.6061C56.7937 94.1176 56.8744 93.5352 56.7388 92.9857L54.7814 84.6389L52.7568 85.1311L50.7213 85.6416L52.6609 93.9771C52.7236 94.2561 52.8398 94.5193 53.0026 94.7513C53.1654 94.9833 53.3716 95.1795 53.609 95.3284C53.8465 95.4772 54.1104 95.5756 54.3853 95.6179C54.6601 95.6602 54.9404 95.6455 55.2097 95.5747ZM56.2952 130.043C56.5777 129.56 56.6647 128.982 56.5374 128.434L44.6721 78.2273C44.5401 77.676 44.2017 77.2009 43.7308 76.9057C43.2599 76.6106 42.6948 76.5194 42.1589 76.6521C41.6237 76.7881 41.1625 77.1366 40.8761 77.6217C40.5896 78.1068 40.501 78.689 40.6298 79.2411L52.4952 129.447C52.6271 129.999 52.9655 130.474 53.4364 130.769C53.9073 131.064 54.4724 131.155 55.0083 131.023C55.2749 130.955 55.5257 130.833 55.7466 130.665C55.9674 130.497 56.1538 130.285 56.2952 130.043Z" fill="#9DB8D3"/>
<path d="M74.8446 114.587L108.085 106.25C110.731 105.587 113.012 103.868 114.427 101.471C115.842 99.0751 116.276 96.198 115.632 93.4727L112.719 81.1474C112.138 78.7318 110.748 76.6047 108.795 75.1403C106.841 73.6759 104.449 72.968 102.039 73.141C101.464 73.1613 100.892 73.2428 100.333 73.3842L98.0191 73.9645L93.0528 75.2101L81.1165 78.2037L77.1203 79.1906L75.1168 79.6931L73.1308 80.2066L67.1486 81.7069L74.8446 114.587Z" fill="url(#paint5_linear)"/>
</g>
<path d="M111.642 33.0423C84.6466 33.0423 63.0652 54.9822 63.0652 82.4263C63.0652 91.9173 65.8482 99.2477 70.6806 106.681L106.532 161.981C107.619 163.653 109.492 164.733 111.642 164.733C113.793 164.733 115.69 163.627 116.753 161.981L152.604 106.681C157.436 99.2477 160.219 91.9173 160.219 82.4263C160.219 54.9822 138.638 33.0423 111.642 33.0423ZM111.642 109.845C96.7402 109.845 84.6466 97.5502 84.6466 82.3749C84.6466 67.1996 96.7402 54.905 111.642 54.905C126.544 54.905 138.638 67.1996 138.638 82.3749C138.638 97.5502 126.544 109.845 111.642 109.845Z" fill="url(#paint6_linear)"/>
<path d="M115.632 93.4727L123.618 91.4698C125.206 91.0695 126.574 90.0357 127.422 88.5959C128.27 87.1561 128.529 85.4282 128.14 83.7923C127.751 82.1564 126.748 80.7465 125.35 79.8728C123.953 78.9991 122.275 78.7332 120.687 79.1335L112.719 81.1473L115.632 93.4727Z" fill="#9DB8D3"/>
<path d="M171.378 74.503C171.592 74.1453 171.698 73.73 171.682 73.3101C171.666 72.8902 171.529 72.4848 171.289 72.1454C171.048 71.806 170.715 71.5481 170.332 71.4046C169.948 71.2611 169.532 71.2384 169.136 71.3395L127.645 81.761C127.381 81.826 127.133 81.944 126.914 82.1085C126.694 82.2729 126.509 82.4804 126.368 82.7189C126.227 82.9575 126.134 83.2225 126.093 83.4986C126.052 83.7746 126.064 84.0563 126.129 84.3274C126.259 84.87 126.592 85.3377 127.056 85.6282C127.519 85.9187 128.075 86.0084 128.603 85.8778L170.094 75.4563C170.359 75.3928 170.608 75.2759 170.829 75.1122C171.049 74.9486 171.236 74.7415 171.378 74.503V74.503Z" fill="#C8DCEC"/>
<path d="M19.5238 161.067L50.9498 153.018V193.646L19.5238 201.694L30.7944 178.494L19.5238 161.067ZM205 100.564L173.574 108.611V149.239L205 141.191L193.729 123.763L205 100.564Z" fill="#DF1E49"/>
<path d="M42.6317 148.151V188.786L64.0327 183.305L160.491 158.604L181.892 153.123V112.489L160.491 117.97L64.0327 142.671L42.6317 148.151V148.151Z" fill="#FF1E55"/>
<path d="M67.1301 158.422C67.6285 158.284 68.0326 158.155 68.3424 158.036L68.4255 158.355C68.1858 158.569 67.9698 158.897 67.7777 159.338C67.5961 159.776 67.4757 160.34 67.4164 161.03L66.591 170.637C66.2462 170.709 65.9624 170.776 65.7398 170.837C65.5277 170.896 65.2548 170.983 64.921 171.098L58.162 162.283C57.9356 161.981 57.7168 161.773 57.5056 161.66C57.3022 161.534 57.1196 161.487 56.9578 161.52L56.8747 161.201C57.6465 161.022 58.6156 160.772 59.7819 160.45C60.9907 160.116 61.8773 159.854 62.4416 159.664L62.5246 159.984C62.1272 160.116 61.8534 160.243 61.7031 160.365C61.5529 160.486 61.5068 160.658 61.5649 160.882C61.612 161.063 61.7407 161.296 61.951 161.58L66.472 167.623L66.8851 162.854C66.9802 161.778 66.9503 160.941 66.7952 160.345C66.5543 159.419 65.995 159.06 65.1172 159.268L65.0341 158.949C65.8377 158.761 66.5364 158.585 67.1301 158.422ZM79.6547 165.593C79.8811 165.896 80.096 166.11 80.2994 166.236C80.5106 166.349 80.6971 166.389 80.8589 166.356L80.942 166.675C80.1702 166.854 79.2012 167.104 78.0348 167.426C76.826 167.76 75.9394 168.022 75.3752 168.212L75.2921 167.892C75.6895 167.76 75.9633 167.633 76.1136 167.512C76.2611 167.38 76.3085 167.213 76.2559 167.01C76.2061 166.819 76.076 166.581 75.8657 166.296L74.2461 163.937L71.0333 164.823L70.9498 165.617C70.8352 166.618 70.8403 167.358 70.9649 167.838C71.0784 168.274 71.2779 168.538 71.5633 168.631C71.8487 168.723 72.2328 168.714 72.7155 168.604L72.7985 168.923C71.995 169.111 71.2963 169.286 70.7025 169.45C70.2041 169.588 69.8 169.717 69.4902 169.836L69.4072 169.517C69.6612 169.401 69.8675 169.167 70.026 168.816C70.1845 168.464 70.304 167.94 70.3845 167.245L71.5438 157.152C71.8886 157.08 72.1724 157.013 72.3951 156.951C72.6072 156.893 72.8801 156.806 73.2138 156.691L79.6547 165.593ZM74.0517 163.648L71.566 160.055L71.0774 164.469L74.0517 163.648ZM84.2673 153.4C84.9035 153.225 85.4679 153.166 85.9603 153.224C86.4527 153.282 86.9539 153.417 87.4639 153.63C87.5948 153.697 87.708 153.717 87.8034 153.691C88.0155 153.632 88.0703 153.275 87.9678 152.618L88.3336 152.517C88.4878 153.285 88.8127 154.622 89.3083 156.527L88.9425 156.628C88.6468 155.797 88.3345 155.164 88.0056 154.73C87.6768 154.296 87.2203 153.983 86.6361 153.79C86.0547 153.609 85.5201 153.585 85.0323 153.72C83.9295 154.024 83.2939 154.77 83.1255 155.957C82.957 157.145 83.0653 158.479 83.4502 159.958C83.835 161.438 84.3886 162.649 85.1109 163.59C85.8331 164.532 86.7456 164.851 87.8484 164.546C88.3361 164.412 88.7877 164.116 89.2029 163.659C89.621 163.213 89.8629 162.701 89.9287 162.124C89.9945 161.546 89.9399 160.768 89.7649 159.79L90.1307 159.689C90.6485 161.68 91.0297 163.058 91.2743 163.823L90.9084 163.924C90.788 163.592 90.678 163.366 90.5784 163.245C90.4866 163.111 90.3877 163.058 90.2817 163.087C90.1968 163.111 90.0966 163.184 89.9809 163.307C89.5923 163.78 89.2042 164.166 88.8166 164.467C88.4261 164.758 87.9234 164.988 87.3084 165.158C86.1102 165.488 85.0009 165.549 83.9806 165.34C82.9602 165.131 82.0887 164.664 81.3661 163.94C80.6406 163.204 80.1215 162.235 79.8086 161.032C79.504 159.861 79.4885 158.753 79.7621 157.707C80.0357 156.662 80.5634 155.763 81.3451 155.011C82.1269 154.259 83.101 153.722 84.2673 153.4ZM95.6681 150.253C96.3043 150.078 96.8686 150.019 97.3611 150.077C97.8535 150.135 98.3547 150.27 98.8647 150.483C98.9956 150.55 99.1088 150.57 99.2042 150.544C99.4163 150.485 99.4711 150.128 99.3686 149.471L99.7344 149.37C99.8886 150.138 100.213 151.475 100.709 153.38L100.343 153.481C100.048 152.65 99.7353 152.017 99.4064 151.583C99.0776 151.149 98.6211 150.836 98.0369 150.643C97.4554 150.462 96.9208 150.438 96.4331 150.573C95.3303 150.877 94.6947 151.623 94.5263 152.81C94.3578 153.998 94.4661 155.332 94.8509 156.811C95.2358 158.291 95.7894 159.502 96.5117 160.444C97.2339 161.385 98.1464 161.704 99.2492 161.399C99.7369 161.265 100.188 160.969 100.604 160.512C101.022 160.066 101.264 159.554 101.33 158.977C101.395 158.399 101.341 157.622 101.166 156.643L101.532 156.542C102.049 158.533 102.431 159.911 102.675 160.676L102.309 160.777C102.189 160.445 102.079 160.219 101.979 160.098C101.887 159.964 101.788 159.911 101.682 159.94C101.598 159.964 101.497 160.037 101.382 160.16C100.993 160.633 100.605 161.019 100.217 161.32C99.8269 161.611 99.3242 161.841 98.7092 162.011C97.511 162.341 96.4017 162.402 95.3814 162.193C94.361 161.984 93.4895 161.517 92.7668 160.793C92.0414 160.057 91.5223 159.088 91.2094 157.885C90.9048 156.714 90.8893 155.606 91.1629 154.56C91.4365 153.515 91.9642 152.616 92.7459 151.864C93.5277 151.112 94.5017 150.575 95.6681 150.253ZM106.558 147.829C106.224 147.944 105.986 148.055 105.844 148.163C105.712 148.268 105.643 148.418 105.637 148.614C105.631 148.81 105.681 149.11 105.786 149.514L107.846 157.435C107.951 157.839 108.054 158.125 108.154 158.291C108.265 158.454 108.403 158.548 108.568 158.57C108.733 158.593 108.988 158.569 109.333 158.496L109.416 158.816C108.792 158.953 107.903 159.182 106.747 159.501C105.464 159.855 104.524 160.132 103.928 160.33L103.845 160.011C104.179 159.896 104.412 159.786 104.544 159.681C104.686 159.573 104.76 159.422 104.766 159.226C104.772 159.03 104.723 158.73 104.617 158.326L102.557 150.405C102.452 150.001 102.344 149.717 102.233 149.553C102.133 149.387 102.001 149.293 101.836 149.27C101.671 149.247 101.416 149.271 101.071 149.344L100.988 149.024C101.6 148.89 102.548 148.645 103.831 148.291C104.976 147.975 105.858 147.714 106.475 147.51L106.558 147.829ZM118.27 144.596C117.961 144.762 117.747 144.946 117.63 145.15C117.51 145.342 117.464 145.606 117.494 145.94C117.525 146.274 117.623 146.76 117.789 147.399L119.998 155.894C119.781 155.932 119.603 155.969 119.465 156.007C119.349 156.04 119.155 156.104 118.885 156.202L109.829 150.418L111.025 155.017C111.23 155.805 111.41 156.365 111.565 156.699C111.717 157.022 111.92 157.234 112.174 157.335C112.438 157.434 112.834 157.45 113.362 157.384L113.445 157.703C113.002 157.791 112.404 157.939 111.652 158.147C111.09 158.302 110.654 158.44 110.344 158.559L110.261 158.24C110.57 158.075 110.785 157.896 110.905 157.703C111.023 157.499 111.067 157.23 111.037 156.896C111.006 156.562 110.908 156.076 110.742 155.437L108.973 148.635C108.868 148.23 108.76 147.946 108.649 147.783C108.549 147.616 108.416 147.522 108.251 147.499C108.086 147.476 107.831 147.501 107.486 147.573L107.403 147.254C107.73 147.198 108.174 147.092 108.736 146.937C109.308 146.779 109.792 146.628 110.187 146.485L118.486 151.588L117.506 147.819C117.301 147.032 117.123 146.476 116.97 146.153C116.815 145.819 116.606 145.603 116.341 145.505C116.088 145.404 115.697 145.386 115.169 145.452L115.085 145.133C115.529 145.045 116.126 144.897 116.879 144.689C117.441 144.534 117.877 144.397 118.187 144.277L118.27 144.596ZM131.082 151.397C131.309 151.7 131.524 151.914 131.727 152.041C131.938 152.154 132.125 152.193 132.287 152.16L132.37 152.48C131.598 152.658 130.629 152.909 129.463 153.231C128.254 153.564 127.367 153.826 126.803 154.016L126.72 153.697C127.117 153.564 127.391 153.437 127.541 153.316C127.689 153.184 127.736 153.017 127.684 152.815C127.634 152.623 127.504 152.385 127.294 152.101L125.674 149.741L122.461 150.628L122.378 151.421C122.263 152.422 122.268 153.163 122.393 153.642C122.506 154.078 122.706 154.343 122.991 154.435C123.277 154.527 123.661 154.518 124.143 154.408L124.226 154.727C123.423 154.915 122.724 155.091 122.13 155.255C121.632 155.392 121.228 155.521 120.918 155.641L120.835 155.321C121.089 155.205 121.295 154.972 121.454 154.62C121.612 154.268 121.732 153.744 121.812 153.049L122.972 142.956C123.316 142.884 123.6 142.817 123.823 142.755C124.035 142.697 124.308 142.61 124.642 142.495L131.082 151.397ZM125.48 149.452L122.994 145.86L122.505 150.273L125.48 149.452ZM138.802 138.586C139.035 139.789 139.272 140.853 139.513 141.779C139.641 142.269 139.756 142.648 139.86 142.916L139.494 143.017C138.781 141.719 138.069 140.837 137.357 140.372C136.645 139.906 135.971 139.762 135.335 139.937L135.319 139.942L137.695 149.076C137.811 149.523 137.938 149.836 138.075 150.015C138.223 150.191 138.424 150.284 138.676 150.294C138.937 150.29 139.327 150.217 139.847 150.073L139.93 150.393C138.426 150.774 137.261 151.078 136.434 151.306C135.681 151.514 134.593 151.832 133.17 152.259L133.087 151.939C133.606 151.796 133.975 151.66 134.191 151.532C134.416 151.39 134.544 151.206 134.576 150.98C134.619 150.752 134.582 150.414 134.466 149.967L132.09 140.833L132.074 140.837C131.428 141.016 130.909 141.49 130.518 142.259C130.135 143.016 129.951 144.145 129.967 145.646L129.601 145.747C129.561 145.462 129.477 145.074 129.35 144.584C129.109 143.658 128.798 142.615 128.416 141.453C129.432 141.207 131.169 140.745 133.629 140.066C136.079 139.39 137.803 138.896 138.802 138.586ZM145.698 136.443C146.896 136.113 148.005 136.052 149.026 136.261C150.046 136.47 150.919 136.942 151.645 137.677C152.367 138.402 152.885 139.366 153.198 140.569C153.502 141.74 153.518 142.848 153.244 143.893C152.971 144.939 152.443 145.838 151.661 146.59C150.88 147.342 149.905 147.879 148.739 148.201C147.541 148.531 146.432 148.592 145.411 148.383C144.391 148.174 143.519 147.707 142.797 146.983C142.071 146.247 141.552 145.278 141.239 144.075C140.935 142.904 140.919 141.796 141.193 140.751C141.466 139.705 141.994 138.806 142.776 138.054C143.558 137.302 144.532 136.765 145.698 136.443ZM145.709 136.748C145.19 136.892 144.791 137.259 144.512 137.849C144.242 138.426 144.111 139.169 144.121 140.079C144.13 140.989 144.278 141.993 144.563 143.089C144.851 144.197 145.226 145.137 145.689 145.911C146.151 146.684 146.649 147.243 147.181 147.587C147.714 147.93 148.23 148.033 148.728 147.896C149.248 147.752 149.643 147.392 149.913 146.816C150.191 146.225 150.326 145.475 150.316 144.565C150.307 143.655 150.16 142.651 149.874 141.555C149.586 140.448 149.211 139.507 148.748 138.733C148.286 137.96 147.788 137.401 147.256 137.057C146.723 136.714 146.208 136.611 145.709 136.748ZM166.843 142.279C166.608 142.686 166.316 143.007 165.968 143.24C165.619 143.473 165.19 143.66 164.681 143.8C163.95 144.002 163.349 144.031 162.88 143.887C162.408 143.732 162.042 143.353 161.783 142.752L161.13 141.221C160.83 140.505 160.534 139.981 160.244 139.651C159.964 139.317 159.638 139.202 159.267 139.304L158.552 139.502L159.507 143.175C159.612 143.579 159.715 143.865 159.815 144.031C159.926 144.194 160.063 144.288 160.228 144.31C160.394 144.333 160.648 144.309 160.993 144.236L161.076 144.556C160.453 144.693 159.564 144.922 158.408 145.241C157.125 145.595 156.185 145.871 155.589 146.07L155.506 145.751C155.84 145.636 156.073 145.526 156.204 145.421C156.347 145.313 156.421 145.162 156.427 144.966C156.433 144.77 156.383 144.47 156.278 144.066L154.218 136.145C154.113 135.741 154.005 135.457 153.894 135.293C153.794 135.127 153.661 135.032 153.496 135.01C153.331 134.987 153.076 135.011 152.732 135.084L152.648 134.764C153.261 134.63 154.177 134.394 155.397 134.057L157.222 133.536C157.431 133.467 157.673 133.395 157.949 133.318C159.561 132.874 160.818 132.772 161.722 133.013C162.637 133.251 163.216 133.839 163.459 134.775C163.667 135.574 163.547 136.337 163.1 137.065C162.653 137.793 161.746 138.415 160.38 138.929C161.481 138.705 162.351 138.687 162.991 138.875C163.629 139.053 164.095 139.449 164.391 140.063L165.157 141.632C165.334 142.005 165.495 142.252 165.64 142.372C165.784 142.492 165.952 142.525 166.143 142.472C166.334 142.42 166.48 142.305 166.582 142.129L166.843 142.279ZM157.948 133.644C157.705 133.711 157.529 133.8 157.421 133.909C157.324 134.016 157.279 134.171 157.286 134.374C157.293 134.578 157.347 134.871 157.447 135.254L158.468 139.182L158.898 139.064C159.651 138.856 160.106 138.485 160.262 137.951C160.416 137.407 160.384 136.714 160.165 135.873C159.938 135 159.644 134.374 159.284 133.994C158.934 133.611 158.489 133.494 157.948 133.644Z" fill="white"/>
<defs>
<linearGradient id="paint0_linear" x1="50.0135" y1="119.011" x2="72.4295" y2="83.2468" gradientUnits="userSpaceOnUse">
<stop stop-color="#D3E6F5"/>
<stop offset="1" stop-color="#F0F7FC"/>
</linearGradient>
<linearGradient id="paint1_linear" x1="171.636" y1="321.997" x2="154.283" y2="311.748" gradientUnits="userSpaceOnUse">
<stop stop-color="#D3E6F5"/>
<stop offset="1" stop-color="#F0F7FC"/>
</linearGradient>
<linearGradient id="paint2_linear" x1="171.774" y1="460.014" x2="135.202" y2="438.414" gradientUnits="userSpaceOnUse">
<stop stop-color="#D3E6F5"/>
<stop offset="1" stop-color="#F0F7FC"/>
</linearGradient>
<linearGradient id="paint3_linear" x1="265.802" y1="433.083" x2="229.391" y2="411.579" gradientUnits="userSpaceOnUse">
<stop stop-color="#D3E6F5"/>
<stop offset="1" stop-color="#F0F7FC"/>
</linearGradient>
<linearGradient id="paint4_linear" x1="105.823" y1="339.741" x2="88.4703" y2="329.493" gradientUnits="userSpaceOnUse">
<stop stop-color="#D3E6F5"/>
<stop offset="1" stop-color="#F0F7FC"/>
</linearGradient>
<linearGradient id="paint5_linear" x1="76.5463" y1="115.654" x2="103.903" y2="72.0064" gradientUnits="userSpaceOnUse">
<stop stop-color="#54A5FF"/>
<stop offset="1" stop-color="#8AD3FE"/>
</linearGradient>
<linearGradient id="paint6_linear" x1="63.0652" y1="94.1844" x2="171.786" y2="95.3221" gradientUnits="userSpaceOnUse">
<stop stop-color="#364F6B"/>
<stop offset="1" stop-color="#A1EAFB" stop-opacity="0.98"/>
</linearGradient>
<clipPath id="clip0">
<rect width="134.335" height="132.513" fill="white" transform="matrix(-0.508532 0.861043 0.847324 0.531076 68.3138 0)"/>
</clipPath>
</defs>
</svg>
